<?xml version="1.0" encoding="iso-8859-1"?>
<!-- Generator: Adobe Illustrator 19.0.0, SVG Export Plug-In . SVG Version: 6.00 Build 0)  -->
<svg version="1.1" id="Layer_1" xmlns="http://www.w3.org/2000/svg" xmlns:xlink="http://www.w3.org/1999/xlink" x="0px" y="0px"
	 viewBox="0 0 512 512" style="enable-background:new 0 0 512 512;" xml:space="preserve">
<g>
	<g>
		<g>
			<path d="M487.104,341.333h-88.021l-18.229-18.208c-2-2-4.708-3.125-7.542-3.125h-71.083c-13.729,0-24.896,11.167-24.896,24.885
				v142.229c0,13.719,11.167,24.885,24.896,24.885h184.875C500.833,512,512,500.833,512,487.115V366.219
				C512,352.5,500.833,341.333,487.104,341.333z"/>
			<path d="M373.313,298.667c8.542,0,16.563,3.323,22.604,9.365l8.875,8.854c2,1.99,4.708,3.115,7.542,3.115h16.021
				c1.625,0,3.25-0.375,4.708-1.094c24.063-11.844,36.271-25.823,36.271-41.573v-63.917c0-3.844-2.063-7.385-5.396-9.281
				c-3.375-1.896-7.479-1.865-10.729,0.125c-65.5,39.094-193.542,41.073-218.542,41.073S81.625,243.354,16.125,204.26
				c-3.25-1.99-7.354-2.021-10.729-0.125C2.063,206.031,0,209.573,0,213.417v63.917C0,326.354,118.063,352,234.667,352l11.188-0.156
				c5.563-0.083,10.125-4.417,10.5-9.958c1.604-24.24,21.75-43.219,45.875-43.219H373.313z"/>
			<path d="M245.167,373.25l-10.5,0.083c-25,0-153.042-1.979-218.542-41.073c-3.25-1.99-7.354-2.01-10.729-0.125
				C2.063,334.031,0,337.573,0,341.417v63.917C0,454.354,118.063,480,234.667,480l10.813-0.156
				C251.313,479.76,256,475.01,256,469.177v-85.26c0-2.854-1.146-5.594-3.188-7.594C250.771,374.313,248.229,372.969,245.167,373.25
				z"/>
			<path d="M234.667,224c116.604,0,234.667-25.646,234.667-74.667V64c0-43.969-121.646-64-234.667-64S0,20.031,0,64v85.333
				C0,198.354,118.063,224,234.667,224z M234.667,21.333c124.229,0,192,28.188,192,42.667s-67.771,42.667-192,42.667
				s-192-28.188-192-42.667S110.438,21.333,234.667,21.333z"/>
		</g>
	</g>
</g>
<g>
</g>
<g>
</g>
<g>
</g>
<g>
</g>
<g>
</g>
<g>
</g>
<g>
</g>
<g>
</g>
<g>
</g>
<g>
</g>
<g>
</g>
<g>
</g>
<g>
</g>
<g>
</g>
<g>
</g>
</svg>
