<?xml version="1.0" encoding="iso-8859-1"?>
<!-- Generator: Adobe Illustrator 16.0.0, SVG Export Plug-In . SVG Version: 6.00 Build 0)  -->
<!DOCTYPE svg PUBLIC "-//W3C//DTD SVG 1.1//EN" "http://www.w3.org/Graphics/SVG/1.1/DTD/svg11.dtd">
<svg version="1.1" id="Capa_1" xmlns="http://www.w3.org/2000/svg" xmlns:xlink="http://www.w3.org/1999/xlink" x="0px" y="0px"
	 width="161.587px" height="161.587px" viewBox="0 0 161.587 161.587" style="enable-background:new 0 0 161.587 161.587;"
	 xml:space="preserve">
<g>
	<g>
		<path d="M87.586,3.477v10.145c0.365,0,0.712-0.082,1.084,0l66.14,13.226c3.009,0.597,4.957,3.528,4.36,6.533
			c-0.53,2.643-2.85,4.463-5.443,4.463c-0.354,0-0.725-0.042-1.097-0.113L87.586,24.725v6.141c0.292,0,0.584-0.073,0.889-0.024
			l66.141,10.774c3.026,0.494,5.084,3.343,4.585,6.366c-0.444,2.726-2.795,4.665-5.474,4.665c-0.293,0-0.597-0.024-0.901-0.073
			L87.574,41.942v4.896c0.269-0.009,0.536-0.088,0.804-0.052l66.135,9.621c3.026,0.436,5.133,3.261,4.701,6.293
			c-0.408,2.762-2.771,4.75-5.493,4.75c-0.262,0-0.523-0.018-0.804-0.055l-65.343-9.502v5.593c0.22-0.006,0.427-0.088,0.652-0.064
			l66.146,7.77c3.05,0.362,5.224,3.118,4.871,6.166c-0.335,2.819-2.729,4.902-5.517,4.902c-0.214,0-0.427-0.019-0.646-0.036
			l-65.508-7.688v76.97h74.014V18.279L87.586,3.477z M149.245,99.691c-2.539,0-4.621-2.076-4.621-4.621
			c0-2.558,2.082-4.628,4.621-4.628c2.558,0,4.628,2.07,4.628,4.628C153.873,97.615,151.802,99.691,149.245,99.691z"/>
		<path d="M24.673,81.79c1.349-0.067,2.7-0.116,4.04-0.116c17.455,0,36.233,5.949,36.233,19.004v45.949
			c0,1.76-0.365,3.367-0.989,4.865h19.927V3.477L24.673,33.082V81.79z"/>
		<path d="M28.713,129.388C12.857,129.388,0,124.255,0,117.904v11.484c0,6.352,12.857,11.484,28.713,11.484
			c15.856,0,28.713-5.14,28.713-11.484v-11.484C57.427,124.255,44.569,129.388,28.713,129.388z"/>
		<path d="M28.713,146.626C12.857,146.626,0,141.481,0,135.136v11.49c0,6.345,12.857,11.484,28.713,11.484
			c15.856,0,28.713-5.14,28.713-11.484v-11.49C57.427,141.481,44.569,146.626,28.713,146.626z"/>
		<path d="M28.713,89.194C12.857,89.194,0,94.327,0,100.677v11.484c0,6.352,12.857,11.49,28.713,11.49
			c15.856,0,28.713-5.139,28.713-11.49v-11.484C57.427,94.327,44.569,89.194,28.713,89.194z M28.713,109.294
			c-15.78,0-25.846-5.104-25.846-8.617c0-3.513,10.065-8.609,25.846-8.609c15.777,0,25.839,5.097,25.839,8.609
			C54.553,104.191,44.49,109.294,28.713,109.294z"/>
	</g>
</g>
<g>
</g>
<g>
</g>
<g>
</g>
<g>
</g>
<g>
</g>
<g>
</g>
<g>
</g>
<g>
</g>
<g>
</g>
<g>
</g>
<g>
</g>
<g>
</g>
<g>
</g>
<g>
</g>
<g>
</g>
</svg>
